:version 1.10
:name ASF
:units
  mass 1
  length 1
  angle deg
:documentation
  ASF file generated by Kaydara
:root
  axis xyz
  order  tx ty tz rx ry rz
  position 0 0 0
  orientation 0 0 0
:bonedata
  begin
    id 1
    name RightUpLegDummy
    direction -1 2.30186e-007 8.31532e-007
    length 4.04083
    axis 0 0 0 xyz
  end
  begin
    id 2
    name RightUpLeg
    direction -0.000919234 -0.999985 0.00544864
    length 17.4221
    axis -3.80308 -0.00076134 -0.0523649 xyz
    dof rx ry rz
  end
  begin
    id 3
    name RightLeg
    direction -0.000919271 -0.999984 -0.00555045
    length 17.1239
    axis 4.00314 0.0181274 -0.183583 xyz
    dof rx ry rz
  end
  begin
    id 4
    name RightFoot
    direction -2.57843e-005 -4.04509e-007 1
    length 6.72091
    axis 8.18909e-005 -0.122003 -0.403008 xyz
    dof rx ry rz
  end
  begin
    id 5
    name RightToes
    direction 0.00116825 -0.014069 0.9999
    length 3.85082
    axis 0.000514414 0.540638 -0.356797 xyz
    dof rx ry rz
  end
  begin
    id 6
    name SpineDummy
    direction 0.0168869 0.966876 -0.254689
    length 6.99894
    axis 0 0 0 xyz
  end
  begin
    id 7
    name Spine
    direction -0.0132008 0.999903 0.00446247
    length 11.1999
    axis -0.00148109 0.00725429 0.756411 xyz
    dof rx ry rz
  end
  begin
    id 8
    name Spine1
    direction 0 0 0
    length 0
    axis -0.000934958 0.0245693 1.46543 xyz
    dof rx ry rz
  end
  begin
    id 9
    name HEadDummy
    direction -0.0255732 0.999672 0.00128215
    length 3.43865
    axis -0.000934958 0.0245693 1.46543 xyz
  end
  begin
    id 10
    name HEad
    direction -0.0472656 0.980052 0.19304
    length 5.12695
    axis -0.000934954 0.0245693 1.46543 xyz
    dof rx ry rz
  end
  begin
    id 11
    name LeftShoulder1Dummy
    direction 0.953098 0.301717 -0.023914
    length 3.68488
    axis -0.000934958 0.0245693 1.46543 xyz
  end
  begin
    id 12
    name LeftShoulder1
    direction 0.962466 0.271167 0.0112566
    length 3.13809
    axis -0.000934958 0.0245693 1.46543 xyz
    dof rx ry rz
  end
  begin
    id 13
    name LeftArm
    direction 0.999943 0.00455037 -0.00961766
    length 11.3419
    axis -23.1648 0.685459 1.22814 xyz
    dof rx ry rz
  end
  begin
    id 14
    name LeftForeArm
    direction 0.999332 0.0131969 0.0340885
    length 8.70632
    axis -9.90633 0.618216 0.0826942 xyz
    dof rx ry rz
  end
  begin
    id 15
    name LeftHand
    direction 0.994373 -0.0366703 0.0993905
    length 5.32135
    axis 0.00675269 0.680415 0.445699 xyz
    dof rx ry rz
  end
  begin
    id 16
    name RightShoulderDummy
    direction -0.967298 0.252589 -0.0230903
    length 3.68488
    axis -0.000934958 0.0245693 1.46543 xyz
  end
  begin
    id 17
    name RightShoulder
    direction -0.975062 0.221602 0.0120823
    length 3.13809
    axis 0.216257 0.0246515 1.45863 xyz
    dof rx ry rz
  end
  begin
    id 18
    name RightArm
    direction -0.99886 -0.00851186 -0.0469687
    length 10.3947
    axis -23.196 0.23503 -0.532632 xyz
    dof rx ry rz
  end
  begin
    id 19
    name RightForeArm
    direction -0.99909 0.00114866 0.0426317
    length 8.68355
    axis -9.91764 -0.134943 0.610517 xyz
    dof rx ry rz
  end
  begin
    id 20
    name RightHand
    direction -0.992888 -0.0489538 0.10852
    length 5.28593
    axis -0.00275396 -0.197403 0.246414 xyz
    dof rx ry rz
  end
  begin
    id 21
    name LeftUpLegDummy
    direction 1 -2.30186e-007 -8.31532e-007
    length 4.04083
    axis 0 0 0 xyz
  end
  begin
    id 22
    name LeftUpLeg
    direction -0.000920097 -1 2.79241e-006
    length 17.4221
    axis -3.48782 0.00143434 -0.0532288 xyz
    dof rx ry rz
  end
  begin
    id 23
    name LeftLeg
    direction -0.000920097 -1 2.7912e-006
    length 17.1239
    axis 3.68162 -0.00806512 -0.0529896 xyz
    dof rx ry rz
  end
  begin
    id 24
    name LeftFoot
    direction -2.57845e-005 -3.987e-007 1
    length 6.72091
    axis 3.02372e-005 -0.00147829 -0.214229 xyz
    dof rx ry rz
  end
  begin
    id 25
    name LeftToes
    direction 0.00813577 -0.00488255 0.999955
    length 3.85048
    axis 3.89895e-005 -0.0014783 -0.214229 xyz
    dof rx ry rz
  end
:hierarchy
  begin
    root RightUpLegDummy SpineDummy LeftUpLegDummy
    RightUpLegDummy RightUpLeg
    RightUpLeg RightLeg
    RightLeg RightFoot
    RightFoot RightToes
    SpineDummy Spine
    Spine Spine1
    Spine1 HEadDummy LeftShoulder1Dummy RightShoulderDummy
    HEadDummy HEad
    LeftShoulder1Dummy LeftShoulder1
    LeftShoulder1 LeftArm
    LeftArm LeftForeArm
    LeftForeArm LeftHand
    RightShoulderDummy RightShoulder
    RightShoulder RightArm
    RightArm RightForeArm
    RightForeArm RightHand
    LeftUpLegDummy LeftUpLeg
    LeftUpLeg LeftLeg
    LeftLeg LeftFoot
    LeftFoot LeftToes
  end

:SAMPLES-PER-SECOND 30
:FULLY-SPECIFIED
:DEGREES
79
root  -5.13908 34.6085 -33.2014 -170.966 1.25082 -179.329
RightUpLeg  -6.86464 -17.3506 -2.55498
RightLeg  3.94489 -3.41291 -0.0143572
RightFoot  7.08504 0.0502687 -0.261644
RightToes  -27.8816 -0.131834 -0.23781
Spine  -2.08376 -0.363929 0.854728
Spine1  -4.22556 -0.650712 2.28975
HEad  -40.4258 8.94728 2.24788
LeftShoulder1  -1.94126e-019 -3.10601e-018 -2.51263e-017
LeftArm  -12.9406 25.7283 -81.1788
LeftForeArm  34.8082 -16.1295 -2.62684
LeftHand  -0.533191 -1.98155 8.58789
RightShoulder  -4.96962e-017 0 -2.36833e-017
RightArm  -29.0226 -25.1664 72.94
RightForeArm  53.5739 17.3264 1.16713
RightHand  -0.383305 -0.00410324 -8.30512
LeftUpLeg  -6.55614 5.14319 6.69976
LeftLeg  4.49157 11.9537 0.167109
LeftFoot  8.40895 -0.12605 1.87607
LeftToes  -27.5527 2.25955e-006 -3.67304e-008
80
root  -5.15814 34.6383 -33.183 -170.918 0.978195 -179.386
RightUpLeg  -6.63863 -17.5865 -2.60216
RightLeg  3.40353 -3.45864 0.0180186
RightFoot  7.38641 0.0537709 -0.282266
RightToes  -27.9667 -0.132156 -0.238048
Spine  -2.05598 -0.388375 0.786288
Spine1  -4.16535 -0.694214 2.18986
HEad  -41.6829 9.25194 2.38109
LeftShoulder1  -1.94126e-019 -3.10601e-018 -2.51263e-017
LeftArm  -12.8078 25.6468 -81.1638
LeftForeArm  34.7245 -16.1847 -2.62176
LeftHand  -0.526158 -1.99472 8.46305
RightShoulder  -4.96962e-017 0 -2.36833e-017
RightArm  -27.9146 -25.5144 72.977
RightForeArm  52.5063 19.0433 1.51674
RightHand  -0.364354 0.00758156 -7.87967
LeftUpLeg  -6.40488 4.87085 6.6174
LeftLeg  3.86895 11.9815 0.038314
LeftFoot  8.77662 -0.138658 1.96824
LeftToes  -27.4953 2.25955e-006 -3.67304e-008
81
root  -5.18559 34.6759 -33.1643 -170.846 0.653412 -179.451
RightUpLeg  -6.33278 -17.8317 -2.66535
RightLeg  2.67514 -3.54801 0.0634226
RightFoot  7.78775 0.0582778 -0.314855
RightToes  -28.1075 -0.132462 -0.23827
Spine  -2.0319 -0.393438 0.706937
Spine1  -4.10995 -0.703825 2.08102
HEad  -42.9926 9.5382 2.52418
LeftShoulder1  -1.94126e-019 -3.10601e-018 -2.51263e-017
LeftArm  -12.6078 25.4785 -81.1741
LeftForeArm  34.5173 -16.3265 -2.62007
LeftHand  -0.545053 -2.11305 8.63022
RightShoulder  -4.96962e-017 0 -2.36833e-017
RightArm  -26.1694 -26.0084 72.8974
RightForeArm  50.1145 21.6828 2.1009
RightHand  -0.314688 -0.134918 -6.97841
LeftUpLeg  -6.18586 4.5793 6.51686
LeftLeg  3.02722 11.9584 -0.136055
LeftFoot  9.25333 -0.155159 2.07865
LeftToes  -27.4607 2.25955e-006 -3.67304e-008
82
root  -5.22647 34.6933 -33.1493 -170.747 0.280533 -179.559
RightUpLeg  -6.22694 -18.2863 -2.78361
RightLeg  2.316 -3.50947 0.0846609
RightFoot  8.03495 0.0611199 -0.322329
RightToes  -28.526 -0.132751 -0.238478
Spine  -2.00814 -0.373237 0.668629
Spine1  -4.06274 -0.656146 2.01729
HEad  -44.2814 9.75625 2.7307
LeftShoulder1  -1.94126e-019 -3.10601e-018 -2.51263e-017
LeftArm  -12.6804 25.2683 -81.285
LeftForeArm  34.3221 -16.7048 -2.66715
LeftHand  -0.537537 -2.05908 8.5718
RightShoulder  -4.96962e-017 0 -2.36833e-017
RightArm  -21.6899 -27.163 71.9615
RightForeArm  46.8376 29.0509 3.73804
RightHand  -0.201512 -0.462332 -4.72542
LeftUpLeg  -6.20742 4.16848 6.35728
LeftLeg  2.62992 12.0029 -0.219139
LeftFoot  9.46698 -0.163695 2.13827
LeftToes  -27.1772 2.25955e-006 -3.67304e-008
83
root  -5.28269 34.707 -33.1366 -170.621 -0.136078 -179.701
RightUpLeg  -6.18022 -18.864 -2.94351
RightLeg  2.048 -3.40191 0.0979368
RightFoot  8.19603 0.0627493 -0.313872
RightToes  -28.7236 -0.133024 -0.23867
Spine  -2.01479 -0.307644 0.692829
Spine1  -4.07803 -0.496763 2.05924
HEad  -45.3745 10.1642 2.58902
LeftShoulder1  -1.94126e-019 -3.10601e-018 -2.51263e-017
LeftArm  -12.6956 25.0771 -81.5554
LeftForeArm  34.0172 -17.2057 -2.73914
LeftHand  -0.524511 -1.92919 8.50786
RightShoulder  -4.96962e-017 0 -2.36833e-017
RightArm  -16.0209 -28.4686 69.3564
RightForeArm  45.7083 41.5006 6.91015
RightHand  0.0182537 0.740621 0.270471
LeftUpLeg  -6.30593 3.46041 6.16058
LeftLeg  2.32144 12.2534 -0.289092
LeftFoot  9.71309 -0.176618 2.24001
LeftToes  -26.9466 2.25955e-006 -3.67304e-008
84
root  -5.36705 34.7446 -33.1187 -170.496 -0.713181 -179.904
RightUpLeg  -5.9496 -19.7632 -3.20296
RightLeg  1.45707 -3.1016 0.121203
RightFoot  8.58486 0.0630987 -0.291245
RightToes  -29.1902 -0.133278 -0.238848
Spine  -2.06179 -0.303941 0.683074
Spine1  -4.16721 -0.477029 2.06955
HEad  -46.4346 11.0035 2.42184
LeftShoulder1  -1.94126e-019 -3.10601e-018 -2.51263e-017
LeftArm  -12.4094 24.996 -81.7536
LeftForeArm  33.6552 -17.945 -2.84513
LeftHand  -0.518834 -1.96446 8.3801
RightShoulder  -4.96962e-017 0 -2.36833e-017
RightArm  -9.93082 -28.9731 65.491
RightForeArm  48.2344 58.1134 13.6971
RightHand  0.0993771 0.565406 1.88612
LeftUpLeg  -6.25112 2.58231 5.85528
LeftLeg  1.57506 12.5945 -0.459791
LeftFoot  10.2446 -0.203273 2.42892
LeftToes  -26.6155 2.25955e-006 -3.67304e-008
85
root  -5.48714 34.8011 -33.0686 -170.397 -1.48651 179.756
RightUpLeg  -5.66007 -20.4979 -3.64935
RightLeg  0.797838 -3.1713 0.160294
RightFoot  9.02996 0.0679033 -0.330805
RightToes  -29.3752 -0.133514 -0.23901
Spine  -2.20762 -0.437431 0.580275
Spine1  -4.44135 -0.792736 1.95048
HEad  -47.1344 11.7801 2.75977
LeftShoulder1  -1.94126e-019 -3.10601e-018 -2.51263e-017
LeftArm  -11.6131 25.0968 -81.6816
LeftForeArm  33.151 -18.8768 -2.97429
LeftHand  -0.489634 -1.86341 8.02207
RightShoulder  -4.96962e-017 0 -2.36833e-017
RightArm  -6.4796 -27.0229 62.0609
RightForeArm  65.1501 74.6909 33.9048
RightHand  0.0265682 -1.37187 0.996373
LeftUpLeg  -6.11491 1.73018 5.36365
LeftLeg  0.539818 12.7057 -0.691794
LeftFoot  10.9476 -0.235361 2.61727
LeftToes  -25.9248 2.25955e-006 -3.67304e-008
86
root  -5.62168 34.8398 -33.0072 -170.381 -2.50423 179.394
RightUpLeg  -5.50982 -20.9212 -4.17143
RightLeg  0.709975 -3.78299 0.196961
RightFoot  9.20541 0.0781253 -0.446972
RightToes  -29.4623 -0.13373 -0.239158
Spine  -2.40018 -0.56021 0.444404
Spine1  -4.7975 -1.13386 1.75676
HEad  -47.6398 11.8289 3.69464
LeftShoulder1  -1.94126e-019 -3.10601e-018 -2.51263e-017
LeftArm  -10.4798 25.0238 -81.4518
LeftForeArm  33.4784 -19.7726 -3.11445
LeftHand  -0.499966 -1.96753 8.07923
RightShoulder  -4.96962e-017 0 -2.36833e-017
RightArm  -7.08897 -21.9445 60.1854
RightForeArm  140.863 80.1923 114.823
RightHand  -0.000948895 -2.7539 0.636629
LeftUpLeg  -6.30302 0.730353 4.87378
LeftLeg  0.274708 12.6626 -0.747747
LeftFoot  11.2968 -0.24981 2.68693
LeftToes  -25.4976 2.25955e-006 -3.67304e-008
87
root  -5.77113 34.8501 -32.9503 -170.566 -3.74638 179.049
RightUpLeg  -5.38745 -21.3424 -4.79592
RightLeg  1.29486 -4.56224 0.191011
RightFoot  9.00262 0.0878432 -0.567264
RightToes  -29.4506 -0.133927 -0.239292
Spine  -2.55317 -0.524879 0.316727
Spine1  -5.06158 -1.18879 1.57146
HEad  -48.3696 11.0182 4.66306
LeftShoulder1  -1.94126e-019 -3.10601e-018 -2.51263e-017
LeftArm  -9.38726 24.4916 -81.2435
LeftForeArm  34.045 -20.5869 -3.26583
LeftHand  -0.510467 -2.25699 7.8738
RightShoulder  -4.96962e-017 0 -2.36833e-017
RightArm  -10.7772 -13.8789 59.8678
RightForeArm  175.648 69.9364 154.112
RightHand  -0.0309288 -3.76835 -0.781869
LeftUpLeg  -6.76684 -0.161542 4.40487
LeftLeg  0.959456 12.2718 -0.579182
LeftFoot  11.1158 -0.233249 2.55819
LeftToes  -25.1804 2.25955e-006 -3.67304e-008
88
root  -5.90942 34.8484 -32.9081 -170.859 -5.3284 178.794
RightUpLeg  -5.01862 -22.1851 -5.372
RightLeg  1.85068 -5.24469 0.168782
RightFoot  8.78407 0.0945944 -0.668624
RightToes  -29.6162 -0.134103 -0.239411
Spine  -2.66619 -0.307802 0.21504
Spine1  -5.24659 -0.876814 1.40309
HEad  -49.5482 9.38224 5.49866
LeftShoulder1  -1.94126e-019 -3.10601e-018 -2.51263e-017
LeftArm  -8.7134 23.5801 -81.2109
LeftForeArm  34.5133 -21.3289 -3.42283
LeftHand  -0.505823 -2.15661 7.98054
RightShoulder  -4.96962e-017 0 -2.36833e-017
RightArm  -15.3891 -3.61912 60.6562
RightForeArm  -176.757 61.3754 163.032
RightHand  -0.0803085 -3.95046 -5.03856
LeftUpLeg  -7.1422 -1.25129 4.06928
LeftLeg  1.62787 11.7682 -0.419305
LeftFoot  10.8779 -0.212759 2.39581
LeftToes  -25.1271 2.25955e-006 -3.67304e-008
